<svg width="80" height="80" viewBox="0 0 80 80" fill="none" xmlns="http://www.w3.org/2000/svg">
<g filter="url(#filter0_d_129_602)">
<path d="M55.7095 27.4283L52.1843 55.7094M40.247 36.2711L38.0438 53.9469M24.7845 45.114L23.9032 52.1843M15.0703 65.4436L57.4921 70.7313C59.3672 70.965 61.2584 70.4443 62.7496 69.2836C64.2408 68.1229 65.2099 66.4174 65.4436 64.5423L70.7313 22.1205C70.965 20.2454 70.4443 18.3542 69.2836 16.863C68.123 15.3718 66.4175 14.4027 64.5423 14.169L22.1206 8.88128C20.2454 8.64755 18.3542 9.1683 16.863 10.329C15.3718 11.4896 14.4027 13.1951 14.169 15.0703L8.88132 57.492C8.64759 59.3672 9.16833 61.2584 10.329 62.7496C11.4897 64.2408 13.1952 65.2099 15.0703 65.4436Z" stroke="#83F84C" stroke-width="5" stroke-linecap="round" stroke-linejoin="round" shape-rendering="crispEdges"/>
</g>
<defs>
<filter id="filter0_d_129_602" x="0.32666" y="0.326416" width="78.9595" height="78.9597" filterUnits="userSpaceOnUse" color-interpolation-filters="sRGB">
<feFlood flood-opacity="0" result="BackgroundImageFix"/>
<feColorMatrix in="SourceAlpha" type="matrix" values="0 0 0 0 0 0 0 0 0 0 0 0 0 0 0 0 0 0 127 0" result="hardAlpha"/>
<feOffset/>
<feGaussianBlur stdDeviation="3"/>
<feComposite in2="hardAlpha" operator="out"/>
<feColorMatrix type="matrix" values="0 0 0 0 0.514218 0 0 0 0 0.970833 0 0 0 0 0.29934 0 0 0 1 0"/>
<feBlend mode="normal" in2="BackgroundImageFix" result="effect1_dropShadow_129_602"/>
<feBlend mode="normal" in="SourceGraphic" in2="effect1_dropShadow_129_602" result="shape"/>
</filter>
</defs>
</svg>
