<svg width="60" height="60" viewBox="0 0 60 60" fill="none" xmlns="http://www.w3.org/2000/svg">
<path d="M39 14.9865C40.5913 14.9865 42.1174 15.6188 43.2426 16.7444C44.3679 17.87 45 19.3966 45 20.9884M57 20.9884C57.0008 23.8008 56.343 26.5743 55.0794 29.0867C53.8157 31.599 51.9812 33.7803 49.7231 35.4557C47.4649 37.1311 44.8458 38.2541 42.0756 38.7347C39.3055 39.2152 36.4613 39.04 33.771 38.223L27 44.9961H21V50.9981H15V57H6C5.20435 57 4.44129 56.6838 3.87868 56.121C3.31607 55.5583 3 54.7949 3 53.999V46.2385C3.00017 45.4427 3.31635 44.6795 3.879 44.1169L21.771 26.2191C21.0223 23.7434 20.8157 21.1353 21.1651 18.5725C21.5146 16.0097 22.4119 13.5522 23.796 11.3675C25.1801 9.1827 27.0185 7.32187 29.1861 5.91164C31.3537 4.50141 33.7995 3.57488 36.3572 3.19513C38.9149 2.81537 41.5244 2.9913 44.008 3.71093C46.4916 4.43057 48.7911 5.67702 50.7499 7.36544C52.7087 9.05387 54.2809 11.1446 55.3594 13.4954C56.438 15.8462 56.9975 18.4019 57 20.9884V20.9884Z" stroke="#83F84C" stroke-width="5" stroke-linecap="round" stroke-linejoin="round"/>
</svg>
