<svg width="34" height="34" viewBox="0 0 34 34" fill="none" xmlns="http://www.w3.org/2000/svg">
<g clip-path="url(#clip0_397_708)">
<path d="M34 0H0V34H34V0Z" fill="#DA0000"/>
<path d="M34 0H0V22.6667H34V0Z" fill="white"/>
<path d="M34 0H0V11.3333H34V0Z" fill="#239F40"/>
<path d="M0.453369 9.61445H2.41781M0.528925 10.8044V10.1433H1.13337V10.6722H1.73781V10.1433H1.36004M0.755591 10.6722H0.906702M2.41781 10.6722H2.04004V10.1433H2.64448M2.64448 9.48222V10.6722H3.24892V9.48222M2.9467 9.48222V10.6722" stroke="white" stroke-width="0.346667"/>
<path d="M0.453369 11.3333H1.81337M1.96448 11.3333H3.32448" stroke="white" stroke-width="0.693333"/>
<path d="M0.453369 22.6667H1.81337M1.96448 22.6667H3.32448" stroke="white" stroke-width="0.693333"/>
<path d="M0.453369 23.3278H2.41781M0.528925 24.5178V23.8567H1.13337V24.3856H1.73781V23.8567H1.36004M0.755591 24.3856H0.906702M2.41781 24.3856H2.04004V23.8567H2.64448M2.64448 23.1956V24.3856H3.24892V23.1956M2.9467 23.1956V24.3856" stroke="white" stroke-width="0.346667"/>
<path d="M3.47559 9.61445H5.44003M3.55114 10.8044V10.1433H4.15559V10.6722H4.76003V10.1433H4.38225M3.77781 10.6722H3.92892M5.44003 10.6722H5.06225V10.1433H5.6667M5.6667 9.48222V10.6722H6.27114V9.48222M5.96892 9.48222V10.6722" stroke="white" stroke-width="0.346667"/>
<path d="M3.47559 11.3333H4.83559M4.9867 11.3333H6.3467" stroke="white" stroke-width="0.693333"/>
<path d="M3.47559 22.6667H4.83559M4.9867 22.6667H6.3467" stroke="white" stroke-width="0.693333"/>
<path d="M3.47559 23.3278H5.44003M3.55114 24.5178V23.8567H4.15559V24.3856H4.76003V23.8567H4.38225M3.77781 24.3856H3.92892M5.44003 24.3856H5.06225V23.8567H5.6667M5.6667 23.1956V24.3856H6.27114V23.1956M5.96892 23.1956V24.3856" stroke="white" stroke-width="0.346667"/>
<path d="M6.4978 9.61445H8.46225M6.57336 10.8044V10.1433H7.1778V10.6722H7.78225V10.1433H7.40447M6.80002 10.6722H6.95114M8.46225 10.6722H8.08447V10.1433H8.68891M8.68891 9.48222V10.6722H9.29336V9.48222M8.99114 9.48222V10.6722" stroke="white" stroke-width="0.346667"/>
<path d="M6.4978 11.3333H7.8578M8.00891 11.3333H9.36891" stroke="white" stroke-width="0.693333"/>
<path d="M6.4978 22.6667H7.8578M8.00891 22.6667H9.36891" stroke="white" stroke-width="0.693333"/>
<path d="M6.4978 23.3278H8.46225M6.57336 24.5178V23.8567H7.1778V24.3856H7.78225V23.8567H7.40447M6.80002 24.3856H6.95114M8.46225 24.3856H8.08447V23.8567H8.68891M8.68891 23.1956V24.3856H9.29336V23.1956M8.99114 23.1956V24.3856" stroke="white" stroke-width="0.346667"/>
<path d="M9.52002 9.61445H11.4845M9.59558 10.8044V10.1433H10.2V10.6722H10.8045V10.1433H10.4267M9.82224 10.6722H9.97335M11.4845 10.6722H11.1067V10.1433H11.7111M11.7111 9.48222V10.6722H12.3156V9.48222M12.0134 9.48222V10.6722" stroke="white" stroke-width="0.346667"/>
<path d="M9.52002 11.3333H10.88M11.0311 11.3333H12.3911" stroke="white" stroke-width="0.693333"/>
<path d="M9.52002 22.6667H10.88M11.0311 22.6667H12.3911" stroke="white" stroke-width="0.693333"/>
<path d="M9.52002 23.3278H11.4845M9.59558 24.5178V23.8567H10.2V24.3856H10.8045V23.8567H10.4267M9.82224 24.3856H9.97335M11.4845 24.3856H11.1067V23.8567H11.7111M11.7111 23.1956V24.3856H12.3156V23.1956M12.0134 23.1956V24.3856" stroke="white" stroke-width="0.346667"/>
<path d="M12.5422 9.61445H14.5067M12.6178 10.8044V10.1433H13.2222V10.6722H13.8267V10.1433H13.4489M12.8445 10.6722H12.9956M14.5067 10.6722H14.1289V10.1433H14.7333M14.7333 9.48222V10.6722H15.3378V9.48222M15.0356 9.48222V10.6722" stroke="white" stroke-width="0.346667"/>
<path d="M12.5422 11.3333H13.9022M14.0533 11.3333H15.4133" stroke="white" stroke-width="0.693333"/>
<path d="M12.5422 22.6667H13.9022M14.0533 22.6667H15.4133" stroke="white" stroke-width="0.693333"/>
<path d="M12.5422 23.3278H14.5067M12.6178 24.5178V23.8567H13.2222V24.3856H13.8267V23.8567H13.4489M12.8445 24.3856H12.9956M14.5067 24.3856H14.1289V23.8567H14.7333M14.7333 23.1956V24.3856H15.3378V23.1956M15.0356 23.1956V24.3856" stroke="white" stroke-width="0.346667"/>
<path d="M15.5645 9.61445H17.5289M15.64 10.8044V10.1433H16.2445V10.6722H16.8489V10.1433H16.4711M15.8667 10.6722H16.0178M17.5289 10.6722H17.1511V10.1433H17.7556M17.7556 9.48222V10.6722H18.36V9.48222M18.0578 9.48222V10.6722" stroke="white" stroke-width="0.346667"/>
<path d="M15.5645 11.3333H16.9245M17.0756 11.3333H18.4356" stroke="white" stroke-width="0.693333"/>
<path d="M15.5645 22.6667H16.9245M17.0756 22.6667H18.4356" stroke="white" stroke-width="0.693333"/>
<path d="M15.5645 23.3278H17.5289M15.64 24.5178V23.8567H16.2445V24.3856H16.8489V23.8567H16.4711M15.8667 24.3856H16.0178M17.5289 24.3856H17.1511V23.8567H17.7556M17.7556 23.1956V24.3856H18.36V23.1956M18.0578 23.1956V24.3856" stroke="white" stroke-width="0.346667"/>
<path d="M18.5867 9.61445H20.5511M18.6622 10.8044V10.1433H19.2667V10.6722H19.8711V10.1433H19.4933M18.8889 10.6722H19.04M20.5511 10.6722H20.1733V10.1433H20.7778M20.7778 9.48222V10.6722H21.3822V9.48222M21.08 9.48222V10.6722" stroke="white" stroke-width="0.346667"/>
<path d="M18.5867 11.3333H19.9467M20.0978 11.3333H21.4578" stroke="white" stroke-width="0.693333"/>
<path d="M18.5867 22.6667H19.9467M20.0978 22.6667H21.4578" stroke="white" stroke-width="0.693333"/>
<path d="M18.5867 23.3278H20.5511M18.6622 24.5178V23.8567H19.2667V24.3856H19.8711V23.8567H19.4933M18.8889 24.3856H19.04M20.5511 24.3856H20.1733V23.8567H20.7778M20.7778 23.1956V24.3856H21.3822V23.1956M21.08 23.1956V24.3856" stroke="white" stroke-width="0.346667"/>
<path d="M21.6089 9.61445H23.5733M21.6844 10.8044V10.1433H22.2889V10.6722H22.8933V10.1433H22.5156M21.9111 10.6722H22.0622M23.5733 10.6722H23.1956V10.1433H23.8M23.8 9.48222V10.6722H24.4044V9.48222M24.1022 9.48222V10.6722" stroke="white" stroke-width="0.346667"/>
<path d="M21.6089 11.3333H22.9689M23.12 11.3333H24.48" stroke="white" stroke-width="0.693333"/>
<path d="M21.6089 22.6667H22.9689M23.12 22.6667H24.48" stroke="white" stroke-width="0.693333"/>
<path d="M21.6089 23.3278H23.5733M21.6844 24.5178V23.8567H22.2889V24.3856H22.8933V23.8567H22.5156M21.9111 24.3856H22.0622M23.5733 24.3856H23.1956V23.8567H23.8M23.8 23.1956V24.3856H24.4044V23.1956M24.1022 23.1956V24.3856" stroke="white" stroke-width="0.346667"/>
<path d="M24.6311 9.61445H26.5955M24.7067 10.8044V10.1433H25.3111V10.6722H25.9155V10.1433H25.5378M24.9333 10.6722H25.0844M26.5955 10.6722H26.2178V10.1433H26.8222M26.8222 9.48222V10.6722H27.4267V9.48222M27.1244 9.48222V10.6722" stroke="white" stroke-width="0.346667"/>
<path d="M24.6311 11.3333H25.9911M26.1422 11.3333H27.5022" stroke="white" stroke-width="0.693333"/>
<path d="M24.6311 22.6667H25.9911M26.1422 22.6667H27.5022" stroke="white" stroke-width="0.693333"/>
<path d="M24.6311 23.3278H26.5955M24.7067 24.5178V23.8567H25.3111V24.3856H25.9155V23.8567H25.5378M24.9333 24.3856H25.0844M26.5955 24.3856H26.2178V23.8567H26.8222M26.8222 23.1956V24.3856H27.4267V23.1956M27.1244 23.1956V24.3856" stroke="white" stroke-width="0.346667"/>
<path d="M27.6533 9.61445H29.6178M27.7289 10.8044V10.1433H28.3333V10.6722H28.9378V10.1433H28.56M27.9555 10.6722H28.1067M29.6178 10.6722H29.24V10.1433H29.8444M29.8444 9.48222V10.6722H30.4489V9.48222M30.1467 9.48222V10.6722" stroke="white" stroke-width="0.346667"/>
<path d="M27.6533 11.3333H29.0133M29.1644 11.3333H30.5244" stroke="white" stroke-width="0.693333"/>
<path d="M27.6533 22.6667H29.0133M29.1644 22.6667H30.5244" stroke="white" stroke-width="0.693333"/>
<path d="M27.6533 23.3278H29.6178M27.7289 24.5178V23.8567H28.3333V24.3856H28.9378V23.8567H28.56M27.9555 24.3856H28.1067M29.6178 24.3856H29.24V23.8567H29.8444M29.8444 23.1956V24.3856H30.4489V23.1956M30.1467 23.1956V24.3856" stroke="white" stroke-width="0.346667"/>
<path d="M30.6755 9.61445H32.64M30.7511 10.8044V10.1433H31.3555V10.6722H31.96V10.1433H31.5822M30.9778 10.6722H31.1289M32.64 10.6722H32.2622V10.1433H32.8666M32.8666 9.48222V10.6722H33.4711V9.48222M33.1689 9.48222V10.6722" stroke="white" stroke-width="0.346667"/>
<path d="M30.6755 11.3333H32.0355M32.1866 11.3333H33.5466" stroke="white" stroke-width="0.693333"/>
<path d="M30.6755 22.6667H32.0355M32.1866 22.6667H33.5466" stroke="white" stroke-width="0.693333"/>
<path d="M30.6755 23.3278H32.64M30.7511 24.5178V23.8567H31.3555V24.3856H31.96V23.8567H31.5822M30.9778 24.3856H31.1289M32.64 24.3856H32.2622V23.8567H32.8666M32.8666 23.1956V24.3856H33.4711V23.1956M33.1689 23.1956V24.3856" stroke="white" stroke-width="0.346667"/>
<path d="M15.6687 20.5546C16.1554 20.8313 16.6819 20.8046 17.1586 20.479C17.6353 20.1533 18.0329 19.5489 18.2837 18.7683C18.5346 17.9877 18.6233 17.0792 18.5347 16.1972C18.4461 15.3151 18.1857 14.514 17.7978 13.9299C18.0502 14.5835 18.1937 15.3472 18.2122 16.1354C18.2306 16.9237 18.1234 17.7053 17.9024 18.3929C17.6814 19.0805 17.3554 19.6469 16.9609 20.0287C16.5664 20.4105 16.119 20.5926 15.6687 20.5546Z" fill="#DA0000"/>
<path d="M18.5016 19.811C18.8215 19.4875 19.0789 19.0042 19.2408 18.423C19.4027 17.8419 19.4618 17.1893 19.4105 16.5491C19.3592 15.9088 19.1998 15.3099 18.9528 14.8291C18.7058 14.3483 18.3823 14.0076 18.0239 13.8505C18.2793 14.1865 18.4943 14.6074 18.6565 15.089C18.8188 15.5707 18.9252 16.1036 18.9696 16.6573C19.0139 17.211 18.9954 17.7746 18.9151 18.3157C18.8348 18.8569 18.6943 19.365 18.5016 19.811Z" fill="#DA0000"/>
<path d="M16.9998 21.25L16.8784 17L16.9998 13.6541C17.0736 13.8344 17.1722 13.9793 17.2865 14.0752V16.5733L17.1888 20.7948L16.9998 21.25Z" fill="#DA0000"/>
<path d="M16.9514 13.3875L17 13.4673C17.0494 13.5903 17.1229 13.6772 17.2065 13.7115C17.2901 13.7459 17.378 13.7254 17.4535 13.6538C17.529 13.5822 17.5869 13.4646 17.6162 13.3233C17.6454 13.182 17.644 13.0268 17.6122 12.8872C17.5996 13.0035 17.5671 13.1102 17.5189 13.1932C17.4706 13.2761 17.4091 13.3312 17.3424 13.3512C17.2758 13.3711 17.2073 13.3549 17.1461 13.3047C17.0848 13.2544 17.0339 13.1727 17 13.0703" fill="#DA0000"/>
<path d="M18.3311 20.5546C17.8444 20.8313 17.3179 20.8046 16.8412 20.479C16.3645 20.1533 15.9669 19.5489 15.716 18.7683C15.4652 17.9877 15.3765 17.0792 15.4651 16.1972C15.5536 15.3151 15.814 14.514 16.2019 13.9299C15.9495 14.5835 15.8061 15.3472 15.7876 16.1354C15.7691 16.9237 15.8764 17.7053 16.0974 18.3929C16.3184 19.0805 16.6444 19.6469 17.0388 20.0287C17.4333 20.4105 17.8808 20.5926 18.3311 20.5546Z" fill="#DA0000"/>
<path d="M15.4981 19.811C15.1783 19.4875 14.9209 19.0042 14.7589 18.423C14.597 17.8419 14.5379 17.1893 14.5892 16.5491C14.6405 15.9088 14.7999 15.3099 15.047 14.8291C15.294 14.3483 15.6174 14.0076 15.9758 13.8505C15.7205 14.1865 15.5055 14.6074 15.3432 15.089C15.1809 15.5707 15.0746 16.1036 15.0302 16.6573C14.9858 17.211 15.0043 17.7746 15.0846 18.3157C15.1649 18.8569 15.3054 19.365 15.4981 19.811Z" fill="#DA0000"/>
<path d="M16.9999 21.25L17.1213 17L16.9999 13.6541C16.9261 13.8344 16.8275 13.9793 16.7133 14.0752V16.5733L16.8109 20.7948L16.9999 21.25Z" fill="#DA0000"/>
<path d="M17.0483 13.3875L16.9998 13.4673C16.9504 13.5903 16.8769 13.6772 16.7933 13.7115C16.7097 13.7459 16.6218 13.7254 16.5462 13.6538C16.4707 13.5822 16.4128 13.4646 16.3836 13.3233C16.3543 13.182 16.3558 13.0268 16.3876 12.8872C16.4001 13.0035 16.4327 13.1102 16.4809 13.1932C16.5291 13.2761 16.5907 13.3312 16.6573 13.3512C16.724 13.3711 16.7925 13.3549 16.8537 13.3047C16.9149 13.2544 16.9659 13.1727 16.9998 13.0703" fill="#DA0000"/>
</g>
<defs>
<clipPath id="clip0_397_708">
<rect width="34" height="34" rx="17" fill="white"/>
</clipPath>
</defs>
</svg>
