<svg width="34" height="32" viewBox="0 0 34 32" fill="none" xmlns="http://www.w3.org/2000/svg">
<g clip-path="url(#clip0_397_698)">
<path d="M0 -1.52588e-05H34V32H0V-1.52588e-05Z" fill="#E30A17"/>
<path d="M15.7722 16L20.8979 13.6491L17.7298 19.8043V12.1957L20.8979 18.3509L15.7722 16ZM16.1216 20.2779C15.4651 21.7425 14.4894 22.8666 13.3413 23.4808C12.1933 24.0951 10.935 24.1663 9.75574 23.6838C8.57653 23.2013 7.54021 22.1912 6.80273 20.8054C6.06525 19.4197 5.6665 17.7333 5.6665 16C5.6665 14.2667 6.06525 12.5803 6.80273 11.1946C7.54021 9.80882 8.57653 8.7987 9.75574 8.31621C10.935 7.83371 12.1933 7.90495 13.3413 8.5192C14.4894 9.13344 15.4651 10.2575 16.1216 11.7221C15.5085 10.759 14.703 10.0811 13.8112 9.77791C12.9195 9.47472 11.9837 9.56052 11.1272 10.024C10.2708 10.4874 9.53406 11.3068 9.01437 12.3737C8.49467 13.4407 8.21645 14.7051 8.21645 16C8.21645 17.2949 8.49467 18.5593 9.01437 19.6263C9.53406 20.6932 10.2708 21.5126 11.1272 21.976C11.9837 22.4395 12.9195 22.5253 13.8112 22.2221C14.703 21.9189 15.5085 21.241 16.1216 20.2779Z" fill="white"/>
</g>
<defs>
<clipPath id="clip0_397_698">
<rect width="34" height="32" rx="16" fill="white"/>
</clipPath>
</defs>
</svg>
