<svg width="39" height="36" viewBox="0 0 39 36" fill="none" xmlns="http://www.w3.org/2000/svg">
<path d="M35.7907 0.869405C35.2973 0.892354 34.8326 1.03579 34.4195 1.19643H34.4137C33.9949 1.36281 32.0041 2.20046 28.9805 3.4684C25.9569 4.74209 22.0326 6.39443 18.137 8.0353C10.3572 11.3113 2.70938 14.5357 2.70938 14.5357L2.80118 14.5012C2.80118 14.5012 2.27335 14.6734 1.72257 15.052C1.44144 15.2356 1.13162 15.4881 0.861971 15.8839C0.592317 16.2798 0.374299 16.888 0.454622 17.5133C0.58658 18.5747 1.27506 19.2116 1.76846 19.5615C2.26761 19.9173 2.74381 20.0836 2.74381 20.0836H2.75528L9.92691 22.499C10.2482 23.5318 12.1128 29.6592 12.5603 31.0706C12.8243 31.914 13.0824 32.4418 13.4037 32.8434C13.5586 33.0499 13.7422 33.2221 13.9602 33.3598C14.0463 33.4114 14.1381 33.4516 14.2299 33.486C14.2586 33.5032 14.2873 33.5089 14.3217 33.5147L14.2471 33.4975C14.2701 33.5032 14.2873 33.5204 14.3045 33.5261C14.3618 33.5434 14.402 33.5491 14.4766 33.5606C15.6126 33.9048 16.5248 33.1991 16.5248 33.1991L16.5764 33.159L20.8106 29.3035L27.9076 34.7482L28.0683 34.817C29.5485 35.4654 31.0459 35.1039 31.8377 34.4671C32.6352 33.8245 32.945 33.004 32.945 33.004L32.9966 32.8721L38.4815 4.77651C38.6364 4.0823 38.6765 3.43398 38.5044 2.80288C38.3323 2.17177 37.8905 1.58083 37.357 1.26528C36.8177 0.94399 36.2841 0.846456 35.7907 0.869405ZM35.6415 3.88149C35.6358 3.97329 35.653 3.96181 35.6128 4.13967V4.15688L30.1796 31.9599C30.1567 32 30.1165 32.0861 30.0075 32.1721C29.8927 32.2639 29.8009 32.3213 29.3247 32.132L20.6442 25.4767L15.4003 30.2559L16.5019 23.2219C16.5019 23.2219 30.0993 10.5482 30.6845 10.0032C31.2697 9.45815 31.0746 9.3434 31.0746 9.3434C31.1148 8.67788 30.1911 9.14834 30.1911 9.14834L12.3079 20.2271L12.3022 20.1984L3.73062 17.3125V17.3068C3.72488 17.3068 3.71341 17.301 3.70767 17.301C3.71341 17.301 3.75357 17.2838 3.75357 17.2838L3.79947 17.2609L3.84537 17.2437C3.84537 17.2437 11.4989 14.0193 19.2787 10.7433C23.1744 9.10244 27.0987 7.45009 30.1165 6.17641C33.1343 4.90847 35.3661 3.97902 35.4923 3.92739C35.6128 3.88149 35.5555 3.88149 35.6415 3.88149Z" fill="#353434"/>
</svg>
