<svg width="60" height="60" viewBox="0 0 60 60" fill="none" xmlns="http://www.w3.org/2000/svg">
<path d="M30 18V57M9 30H51M9 30C7.4087 30 5.88258 29.3679 4.75736 28.2426C3.63214 27.1174 3 25.5913 3 24C3 22.4087 3.63214 20.8826 4.75736 19.7574C5.88258 18.6321 7.4087 18 9 18H51C52.5913 18 54.1174 18.6321 55.2426 19.7574C56.3679 20.8826 57 22.4087 57 24C57 25.5913 56.3679 27.1174 55.2426 28.2426C54.1174 29.3679 52.5913 30 51 30M9 30V51C9 52.5913 9.63214 54.1174 10.7574 55.2426C11.8826 56.3679 13.4087 57 15 57H45C46.5913 57 48.1174 56.3679 49.2426 55.2426C50.3679 54.1174 51 52.5913 51 51V30M30 18V12C30 10.8133 30.3519 9.65328 31.0112 8.66658C31.6705 7.67989 32.6075 6.91085 33.7039 6.45673C34.8003 6.0026 36.0067 5.88378 37.1705 6.11529C38.3344 6.3468 39.4035 6.91825 40.2426 7.75736C41.0818 8.59648 41.6532 9.66558 41.8847 10.8295C42.1162 11.9933 41.9974 13.1997 41.5433 14.2961C41.0892 15.3925 40.3201 16.3295 39.3334 16.9888C38.3467 17.6481 37.1867 18 36 18H30ZM30 18V10.5C30 9.01664 29.5601 7.56659 28.736 6.33323C27.9119 5.09986 26.7406 4.13856 25.3701 3.57091C23.9997 3.00325 22.4917 2.85472 21.0368 3.14411C19.582 3.4335 18.2456 4.14781 17.1967 5.1967C16.1478 6.2456 15.4335 7.58197 15.1441 9.03683C14.8547 10.4917 15.0032 11.9997 15.5709 13.3701C16.1386 14.7406 17.0999 15.9119 18.3332 16.736C19.5666 17.5601 21.0166 18 22.5 18H30Z" stroke="#83F84C" stroke-width="5" stroke-linecap="round" stroke-linejoin="round"/>
</svg>
