<svg width="64" height="64" viewBox="0 0 64 64" fill="none" xmlns="http://www.w3.org/2000/svg">
<path d="M61 32C61 39.6913 57.9447 47.0675 52.5061 52.5061C47.0675 57.9447 39.6913 61 32 61M61 32C61 24.3087 57.9447 16.9325 52.5061 11.4939C47.0675 6.05535 39.6913 3 32 3M61 32H3M32 61C24.3087 61 16.9325 57.9447 11.4939 52.5061C6.05535 47.0675 3 39.6913 3 32M32 61C37.3392 61 41.6667 48.0144 41.6667 32C41.6667 15.9856 37.3392 3 32 3M32 61C26.6608 61 22.3333 48.0144 22.3333 32C22.3333 15.9856 26.6608 3 32 3M32 3C24.3087 3 16.9325 6.05535 11.4939 11.4939C6.05535 16.9325 3 24.3087 3 32" stroke="#83F84C" stroke-width="5" stroke-linecap="round" stroke-linejoin="round"/>
</svg>
