<svg width="52" height="54" viewBox="0 0 52 54" fill="none" xmlns="http://www.w3.org/2000/svg">
<path d="M17 24.1667L25.5 15.6667M25.5 15.6667L34 24.1667M25.5 15.6667V38.3333M25.5 1.5C28.8487 1.5 32.1646 2.15958 35.2584 3.44107C38.3522 4.72257 41.1633 6.60088 43.5312 8.96878C45.8991 11.3367 47.7774 14.1478 49.0589 17.2416C50.3404 20.3354 51 23.6513 51 27C51 30.3487 50.3404 33.6646 49.0589 36.7584C47.7774 39.8522 45.8991 42.6633 43.5312 45.0312C41.1633 47.3991 38.3522 49.2774 35.2584 50.5589C32.1646 51.8404 28.8487 52.5 25.5 52.5C18.737 52.5 12.251 49.8134 7.46878 45.0312C2.6866 40.249 0 33.763 0 27C0 20.237 2.6866 13.751 7.46878 8.96878C12.251 4.1866 18.737 1.5 25.5 1.5V1.5Z" stroke="#F5F5F5" stroke-width="2" stroke-linecap="round" stroke-linejoin="round"/>
</svg>
