<svg width="49" height="63" viewBox="0 0 49 63" fill="none" xmlns="http://www.w3.org/2000/svg">
<path d="M15.1378 9.63212H8.88493C7.22657 9.63212 5.63613 10.2909 4.4635 11.4635C3.29086 12.6362 2.63208 14.2266 2.63208 15.885L2.63208 53.4021C2.63208 55.0604 3.29086 56.6508 4.4635 57.8235C5.63613 58.9961 7.22657 59.6549 8.88493 59.6549H40.1492C41.8075 59.6549 43.398 58.9961 44.5706 57.8235C45.7432 56.6508 46.402 55.0604 46.402 53.4021V15.885C46.402 14.2266 45.7432 12.6362 44.5706 11.4635C43.398 10.2909 41.8075 9.63212 40.1492 9.63212H33.8963M15.1378 9.63212C15.1378 11.2905 15.7966 12.8809 16.9692 14.0536C18.1418 15.2262 19.7323 15.885 21.3906 15.885H27.6435C29.3018 15.885 30.8923 15.2262 32.0649 14.0536C33.2375 12.8809 33.8963 11.2905 33.8963 9.63212M15.1378 9.63212C15.1378 7.97376 15.7966 6.38333 16.9692 5.21069C18.1418 4.03805 19.7323 3.37927 21.3906 3.37927L27.6435 3.37927C29.3018 3.37927 30.8923 4.03805 32.0649 5.21069C33.2375 6.38333 33.8963 7.97376 33.8963 9.63212M24.517 31.5171H33.8963M24.517 44.0228H33.8963M15.1378 31.5171H15.169M15.1378 44.0228H15.169" stroke="#83F84C" stroke-width="5" stroke-linecap="round" stroke-linejoin="round"/>
</svg>
