<svg width="62" height="51" viewBox="0 0 62 51" fill="none" xmlns="http://www.w3.org/2000/svg">
<path d="M45 48H59V42.375C58.9999 40.6215 58.4559 38.9116 57.4436 37.483C56.4313 36.0544 55.0011 34.9781 53.3517 34.4037C51.7023 33.8293 49.9157 33.7853 48.2403 34.2779C46.5649 34.7704 45.0839 35.7751 44.0032 37.1522M45 48H17M45 48V42.375C45 40.53 44.6472 38.7666 44.0032 37.1522M17 48H3L3 42.375C3.00013 40.6215 3.54414 38.9116 4.55641 37.483C5.56868 36.0544 6.99892 34.9781 8.6483 34.4037C10.2977 33.8293 12.0843 33.7853 13.7597 34.2779C15.4351 34.7704 16.9161 35.7751 17.9968 37.1522M17 48V42.375C17 40.53 17.3528 38.7666 17.9968 37.1522M17.9968 37.1522C19.0366 34.5421 20.8311 32.3047 23.1488 30.7288C25.4665 29.1528 28.2012 28.3105 31 28.3105C33.7988 28.3105 36.5335 29.1528 38.8512 30.7288C41.1689 32.3047 42.9634 34.5421 44.0032 37.1522M39.4 11.4375C39.4 13.6753 38.515 15.8214 36.9397 17.4037C35.3644 18.9861 33.2278 19.875 31 19.875C28.7722 19.875 26.6356 18.9861 25.0603 17.4037C23.485 15.8214 22.6 13.6753 22.6 11.4375C22.6 9.19974 23.485 7.05362 25.0603 5.47129C26.6356 3.88895 28.7722 3 31 3C33.2278 3 35.3644 3.88895 36.9397 5.47129C38.515 7.05362 39.4 9.19974 39.4 11.4375V11.4375ZM56.2 19.875C56.2 21.3668 55.61 22.7976 54.5598 23.8525C53.5096 24.9074 52.0852 25.5 50.6 25.5C49.1148 25.5 47.6904 24.9074 46.6402 23.8525C45.59 22.7976 45 21.3668 45 19.875C45 18.3832 45.59 16.9524 46.6402 15.8975C47.6904 14.8426 49.1148 14.25 50.6 14.25C52.0852 14.25 53.5096 14.8426 54.5598 15.8975C55.61 16.9524 56.2 18.3832 56.2 19.875ZM17 19.875C17 21.3668 16.41 22.7976 15.3598 23.8525C14.3096 24.9074 12.8852 25.5 11.4 25.5C9.91479 25.5 8.49041 24.9074 7.4402 23.8525C6.39 22.7976 5.8 21.3668 5.8 19.875C5.8 18.3832 6.39 16.9524 7.4402 15.8975C8.49041 14.8426 9.91479 14.25 11.4 14.25C12.8852 14.25 14.3096 14.8426 15.3598 15.8975C16.41 16.9524 17 18.3832 17 19.875Z" stroke="#83F84C" stroke-width="5" stroke-linecap="round" stroke-linejoin="round"/>
</svg>
